<svg width="18" height="12" viewBox="0 0 18 12" fill="none" xmlns="http://www.w3.org/2000/svg">
<path d="M16.173 4.03894H2.19761V1.34779C2.19761 0.834285 2.61548 0.416559 3.12884 0.416559C3.52001 0.416559 3.87219 0.663861 4.00502 1.03206L4.07273 1.21979L3.68172 1.36074C3.53642 1.41304 3.42032 1.51883 3.35464 1.65861C3.28897 1.79853 3.28156 1.9556 3.33415 2.10062L3.55385 2.71002C3.57259 2.76204 3.61124 2.80447 3.66108 2.82801C3.68912 2.84109 3.71949 2.84777 3.74971 2.84777C3.77354 2.84777 3.79752 2.8437 3.82033 2.83542L5.69024 2.16107C5.74225 2.14233 5.78468 2.10368 5.80822 2.05369C5.83162 2.00386 5.83423 1.94646 5.81549 1.89444L5.59564 1.28504C5.54319 1.13974 5.43741 1.02379 5.29778 0.958111C5.158 0.892146 5.00078 0.884878 4.85591 0.937624L4.46459 1.07871L4.39674 0.890837C4.20465 0.358024 3.69509 0 3.12883 0C2.38548 0 1.78103 0.604604 1.78103 1.34781V4.03895H1.54419C1.21624 4.03895 0.908335 4.16624 0.675704 4.39858C0.445111 4.63251 0.318115 4.94013 0.318115 5.26501C0.318115 5.57073 0.432612 5.86147 0.631532 6.08335C0.631387 6.08727 0.629353 6.09047 0.629353 6.09439C0.629353 6.156 0.65725 6.20991 0.699677 6.24812V7.07896C0.699677 8.53795 1.68336 9.78566 3.07245 10.1396L2.76238 10.8659C2.68595 11.0429 2.68319 11.2384 2.75468 11.4162C2.82588 11.5936 2.96275 11.7325 3.1393 11.8069C3.23287 11.8466 3.32703 11.8668 3.419 11.8668C3.70786 11.8668 3.96707 11.6949 4.07896 11.4296L4.55482 10.3123C4.56485 10.2885 4.57008 10.2647 4.57763 10.241H13.1397C13.1473 10.2648 13.1525 10.2887 13.1627 10.3126L13.6381 11.429C13.7501 11.6949 14.0093 11.8668 14.2982 11.8668C14.3902 11.8668 14.4839 11.8466 14.5774 11.8072C14.7544 11.7326 14.8913 11.5936 14.9625 11.4162C15.0339 11.2384 15.0312 11.0429 14.9552 10.8668L14.6447 10.1396C16.0341 9.78518 17.0175 8.53764 17.0175 7.0788V6.15437C17.0252 6.14711 17.0329 6.13955 17.0405 6.13199C17.0409 6.13156 17.0413 6.13141 17.0415 6.13098C17.2721 5.89718 17.3991 5.58957 17.3991 5.26499C17.3991 4.58889 16.849 4.03893 16.173 4.03893L16.173 4.03894ZM4.99708 1.32934C5.01495 1.3228 5.03326 1.31975 5.05186 1.31975C5.07525 1.31975 5.0985 1.32484 5.12015 1.33501C5.15923 1.35346 5.18888 1.38587 5.20355 1.42655L5.35263 1.83992L3.87478 2.37288L3.7257 1.95936C3.71103 1.91882 3.71306 1.87494 3.73137 1.83615C3.74968 1.79706 3.78208 1.76756 3.82276 1.75289L4.40992 1.54118H4.41007C4.41007 1.54118 4.41021 1.54118 4.41021 1.54104L4.99708 1.32934ZM14.9682 4.45551V7.43114H12.7244V4.45551H14.9682ZM0.971216 4.69206C1.12393 4.5395 1.32735 4.45551 1.54398 4.45551H12.3081V5.88601H1.02657C0.843484 5.73446 0.734947 5.50734 0.734947 5.265C0.734947 5.05039 0.819366 4.84653 0.971499 4.69209L0.971216 4.69206ZM3.69547 11.2671C3.64854 11.3784 3.53985 11.4501 3.41896 11.4501C3.38278 11.4501 3.34456 11.4414 3.30156 11.4231C3.22774 11.392 3.17079 11.3345 3.141 11.2608C3.11136 11.187 3.11267 11.1053 3.14507 11.0304L3.49147 10.2187C3.50513 10.2203 3.51864 10.2197 3.5323 10.2212C3.64331 10.2331 3.75417 10.2411 3.86417 10.2411H4.1321L3.69547 11.2671ZM14.5757 11.2608C14.546 11.3345 14.4891 11.392 14.4151 11.4231C14.415 11.4233 14.415 11.4233 14.4147 11.4233C14.3721 11.4414 14.3339 11.4501 14.2977 11.4501C14.1768 11.4501 14.0683 11.3784 14.0211 11.2665L13.5846 10.2411H13.8525C13.9627 10.2411 14.0738 10.233 14.185 10.2212C14.1985 10.2197 14.2117 10.2203 14.2252 10.2187L14.572 11.0313C14.604 11.1054 14.6055 11.1869 14.5757 11.2608L14.5757 11.2608ZM16.745 5.83819C16.7123 5.87074 16.6774 5.89907 16.6408 5.92566C16.5677 5.97855 16.5371 6.07271 16.565 6.15858C16.573 6.18299 16.5852 6.20537 16.6006 6.22469V7.07892C16.6006 8.42208 15.641 9.5598 14.3183 9.78428C14.1632 9.81087 14.0065 9.82453 13.8525 9.82453H13.3106L4.4059 9.82438H3.86394C3.70992 9.82438 3.55328 9.81072 3.39752 9.78384C2.07542 9.55965 1.11599 8.42194 1.11599 7.07875V6.30255H12.3079V7.63946C12.3079 7.75454 12.401 7.84782 12.5163 7.84782H15.1766C15.2917 7.84782 15.385 7.75469 15.385 7.63946L15.3848 4.45545H16.173C16.6192 4.45545 16.9823 4.81856 16.9823 5.26494C16.9823 5.47911 16.8982 5.68266 16.7452 5.83815L16.745 5.83819Z" fill="black"/>
</svg>
