<svg width="70" height="49" viewBox="0 0 70 49" fill="none" xmlns="http://www.w3.org/2000/svg">
<path d="M69.9956 11.5037V9.87371C69.9956 9.63928 69.9736 9.42023 69.9671 9.18874C69.9693 9.14332 69.9934 9.10449 69.9934 9.05834V2.53744C69.9934 1.19093 68.8931 0.0913086 67.5473 0.0913086H65.9165C63.6763 0.0913086 61.8425 4.49484 61.8425 9.87359V24.6316C63.4403 24.9554 64.6988 26.2111 65.0235 27.811H65.1033V46.5617C65.1033 47.9067 66.2029 49.0063 67.5464 49.0063H67.5516C68.8966 49.0063 70 47.9067 70 46.5617L69.9992 27.8103V11.5035L69.9956 11.5037Z" fill="#596B86"/>
<path d="M10.5912 0C10.1429 0 9.77654 0.366294 9.77654 0.814655V12.2306C9.77654 12.6819 9.41245 13.0453 8.96189 13.0453C8.51062 13.0453 8.14724 12.6812 8.14724 12.2306V0.814655C8.14724 0.366313 7.78095 0 7.33259 0C6.88422 0 6.51793 0.366294 6.51793 0.814655V12.2306C6.51793 12.6819 6.15164 13.0453 5.70328 13.0453C5.2498 13.0453 4.88863 12.6812 4.88863 12.2306V0.814655C4.88863 0.366313 4.52234 0 4.07397 0C3.62344 0 3.25932 0.366294 3.25932 0.814655V12.2306C3.25713 12.6819 2.89303 13.0453 2.44467 13.0453C1.99119 13.0453 1.63002 12.6812 1.63002 12.2306V0.814655C1.63002 0.366313 1.26372 0 0.81317 0C0.364827 0 0 0.366294 0 0.814655V15.9573C0 17.5199 1.36922 18.8466 3.26082 19.3485V46.4711C3.26082 47.8161 4.36045 48.9157 5.70696 48.9157C7.05054 48.9157 8.15309 47.8161 8.15309 46.4711L8.14943 19.3485C10.0395 18.8467 11.4103 17.5199 11.4103 15.9573V0.814655C11.4059 0.366313 11.0396 0 10.5912 0H10.5912Z" fill="#596B86"/>
<path d="M35.0001 9.33594C28.5555 9.33594 23.332 14.5607 23.332 21.0055H46.67C46.6685 14.5609 41.4452 9.33594 35.0004 9.33594H35.0001ZM35.0001 11.4362C39.5561 11.4362 43.3765 14.634 44.3369 18.9035H25.664C26.6237 14.6339 30.4441 11.4362 35.0001 11.4362Z" fill="#596B86"/>
<path d="M33.948 0H36.0462V7.00213H33.948V0Z" fill="#596B86"/>
<path d="M16.9321 8.42627L22.9958 11.9258L21.946 13.7449L15.8823 10.2453L16.9321 8.42627Z" fill="#596B86"/>
<path d="M25.5704 1.87158L29.07 7.93524L27.251 8.98506L23.7514 2.92139L25.5704 1.87158Z" fill="#596B86"/>
<path d="M53.1037 8.42236L54.155 10.2407L48.0943 13.7447L47.043 11.9264L53.1037 8.42236Z" fill="#596B86"/>
<path d="M44.4635 1.87158L46.2818 2.92286L42.7778 8.98352L40.9595 7.93225L44.4635 1.87158Z" fill="#596B86"/>
<path d="M51.7234 25.6729L45.114 25.6751H18.6741V35.59C18.6741 41.0426 23.1386 45.5056 28.5897 45.5056H40.1589C44.4467 45.5056 48.0841 42.729 49.4592 38.8962H51.7236C55.3734 38.8962 58.3353 35.9358 58.3353 32.283C58.3353 28.634 55.3726 25.6729 51.7244 25.6729L51.7234 25.6729ZM51.7234 34.4355H50.0714V30.1374H51.7234C52.9102 30.1374 53.8721 31.0993 53.8721 32.2838C53.8721 33.4736 52.9051 34.4355 51.7234 34.4355Z" fill="#596B86"/>
</svg>
