<svg width="54" height="53" viewBox="0 0 54 53" fill="none" xmlns="http://www.w3.org/2000/svg">
<path d="M53.1647 50.8948H45.5372C46.9799 49.9668 47.9422 48.3466 47.9422 46.4987C47.9422 43.6129 45.5967 41.2676 42.711 41.2676C39.817 41.2676 37.4798 43.613 37.4798 46.4987C37.4798 48.3466 38.4331 49.9664 39.8762 50.8948H16.9767C18.4194 49.9668 19.3816 48.3466 19.3816 46.4987C19.3816 43.6129 17.0361 41.2676 14.1504 41.2676C11.2564 41.2676 8.91925 43.613 8.91925 46.4987C8.91925 48.3466 9.87249 49.9664 11.3156 50.8948H1.12278C0.658588 50.8948 0.287628 51.2743 0.287628 51.7299C0.287628 52.1856 0.658986 52.5651 1.12278 52.5651H53.1649C53.629 52.5651 54 52.1856 54 51.7299C54.0004 51.2743 53.629 50.8948 53.1649 50.8948H53.1647ZM42.7024 44.3895C43.867 44.3895 44.8117 45.3346 44.8117 46.4987C44.8117 47.6633 43.8666 48.608 42.7024 48.608C41.5379 48.608 40.5932 47.6629 40.5932 46.4987C40.5846 45.3342 41.5383 44.3895 42.7024 44.3895ZM14.1417 44.3895C15.3062 44.3895 16.2509 45.3346 16.2509 46.4987C16.2509 47.6633 15.3058 48.608 14.1417 48.608C12.9771 48.608 12.0324 47.6629 12.0324 46.4987C12.0324 45.3342 12.9771 44.3895 14.1417 44.3895Z" fill="#596B86"/>
<path d="M2.46415 15.1449L9.57695 15.2292C10.8006 15.2459 11.8043 14.2674 11.8128 13.0437C11.8295 11.8201 10.8425 10.8164 9.62737 10.8079H9.59358C9.60212 10.7655 9.60212 10.7403 9.60212 10.6983C9.61883 9.06997 8.31136 7.73685 6.6826 7.71159C5.0962 7.69489 3.78863 8.92668 3.70401 10.496C3.34975 10.2936 2.95314 10.1837 2.51418 10.1755C1.14765 10.1499 0.0172909 11.2553 0.000186884 12.6305C-0.0165164 14.006 1.08858 15.1282 2.46406 15.1449L2.46415 15.1449Z" fill="#596B86"/>
<path d="M41.7498 2.5649C42.214 2.5649 42.5849 2.18539 42.5849 1.72975V0.835155C42.5849 0.370959 42.2136 0 41.7498 0C41.2856 0 40.9146 0.379511 40.9146 0.835155V1.7212C40.9061 2.18501 41.2856 2.56491 41.7498 2.56491V2.5649Z" fill="#596B86"/>
<path d="M38.4503 2.83489C38.6022 3.10486 38.8892 3.25675 39.1759 3.25675C39.3193 3.25675 39.463 3.22295 39.5978 3.1472C40.0029 2.91957 40.1377 2.40489 39.9015 1.99974L39.4544 1.22323C39.2268 0.818087 38.7121 0.683293 38.307 0.919468C37.9018 1.1471 37.767 1.66178 38.0032 2.06693L38.4503 2.83489Z" fill="#596B86"/>
<path d="M36.1044 4.58131L36.8724 5.02026C37.0076 5.09601 37.1509 5.12981 37.2942 5.12981C37.5813 5.12981 37.868 4.97793 38.0199 4.70795C38.2475 4.30281 38.1127 3.79666 37.7161 3.56049L36.9481 3.11339C36.543 2.87721 36.0368 3.02055 35.8007 3.41715C35.5645 3.83046 35.6997 4.34515 36.1044 4.58132L36.1044 4.58131Z" fill="#596B86"/>
<path d="M35.7077 7.71181H36.5938C37.058 7.71181 37.4289 7.3323 37.4289 6.87666C37.4289 6.41246 37.0576 6.0415 36.5938 6.0415H35.7077C35.2435 6.0415 34.8726 6.42101 34.8726 6.87666C34.8726 7.33192 35.2439 7.71181 35.7077 7.71181Z" fill="#596B86"/>
<path d="M43.9007 3.13848C44.0359 3.21423 44.1793 3.24803 44.3226 3.24803C44.6096 3.24803 44.8963 3.09615 45.0482 2.82618L45.4953 2.05821C45.7229 1.65307 45.5881 1.14692 45.1915 0.910751C44.7864 0.674576 44.2802 0.817913 44.0441 1.21452L43.597 1.98248C43.3604 2.39578 43.4956 2.90232 43.9007 3.13849L43.9007 3.13848Z" fill="#596B86"/>
<path d="M42.433 8.18425C42.0616 7.97333 41.6398 7.86378 41.1841 7.86378C39.7414 7.86378 38.5768 9.0365 38.5768 10.4711C38.5768 11.9056 39.7495 13.0783 41.1841 13.0783H48.643C49.9256 13.0783 50.9632 12.0404 50.9632 10.7581C50.9632 9.47554 49.9171 8.43796 48.643 8.43796H48.6092C48.6178 8.39562 48.6178 8.36221 48.6178 8.31987C48.6178 6.60718 47.2256 5.22314 45.5211 5.22314C43.8589 5.2313 42.5005 6.53876 42.4329 8.18423L42.433 8.18425Z" fill="#596B86"/>
<path d="M38.4254 6.86774C38.4254 6.97728 38.4421 7.07867 38.4506 7.18821C39.193 6.57214 40.1381 6.18404 41.176 6.18404H41.2435C41.7159 5.23896 42.4924 4.47951 43.4457 4.02386C42.9477 3.7201 42.374 3.54297 41.7497 3.54297C39.9186 3.54336 38.4254 5.03689 38.4254 6.86772L38.4254 6.86774Z" fill="#596B86"/>
<path d="M3.07179 35.8083C3.07179 35.1417 3.18133 34.4919 3.4008 33.8847L4.86061 29.6829C4.47256 29.4467 4.0169 29.3115 3.53604 29.3115C2.11004 29.3115 0.954025 30.4675 0.954025 31.8935V39.2258C0.954025 40.4914 1.87386 41.546 3.0804 41.7569L3.08001 35.8083L3.07179 35.8083Z" fill="#596B86"/>
<path d="M7.74653 26.4687L4.97925 34.4505C4.82737 34.8895 4.75162 35.3533 4.75162 35.8089V41.9852H8.92819C10.1938 40.5172 12.0668 39.5888 14.1509 39.5888C16.2349 39.5888 18.108 40.5254 19.3736 41.9852H37.489C38.7546 40.5172 40.6276 39.5888 42.7117 39.5888C44.7958 39.5888 46.6688 40.5254 47.9344 41.9852H50.8369V39.4708C50.8369 39.1503 50.8031 38.8466 50.7441 38.5428C50.3389 36.5179 48.6177 34.9567 46.4917 34.8052L40.2988 34.3662L35.3713 25.7598C34.629 24.4772 33.262 23.6758 31.777 23.6758H11.6618C9.88974 23.6843 8.32889 24.798 7.74666 26.4687L7.74653 26.4687ZM22.5714 27.6247C22.5714 27.0933 23.0018 26.6544 23.5417 26.6544H31.7597C32.1816 26.6544 32.5696 26.882 32.7806 27.2448L36.3834 33.5392C36.7547 34.1891 36.2905 34.9905 35.5397 34.9905H23.542C23.0106 34.9905 22.5716 34.5601 22.5716 34.0202L22.5714 27.6247ZM19.9645 27.6247V34.0286C19.9645 34.56 19.5341 34.999 18.9942 34.999H9.29934C8.63277 34.999 8.16858 34.3409 8.38804 33.7163L10.5564 27.4472C10.7168 26.9749 11.1639 26.6626 11.6615 26.6626H18.9937C19.5341 26.6544 19.9645 27.0848 19.9645 27.6247H19.9645Z" fill="#596B86"/>
<path d="M49.6127 46.4991C49.6127 47.039 49.5451 47.5622 49.427 48.0684H51.469C52.0342 48.0684 52.4985 47.6127 52.4985 47.0389V44.6935C52.4985 44.1283 52.0428 43.6641 51.469 43.6641H48.997C49.3847 44.533 49.6127 45.4862 49.6127 46.499L49.6127 46.4991Z" fill="#596B86"/>
<path d="M4.09301 43.6641C3.52782 43.6641 3.06358 44.1197 3.06358 44.6935V47.0389C3.06358 47.6041 3.51923 48.0684 4.09301 48.0684H7.41736C7.29927 47.5622 7.23168 47.0389 7.23168 46.4991C7.23168 45.4863 7.45115 44.5331 7.84776 43.6642L4.09301 43.6641Z" fill="#596B86"/>
<path d="M20.4443 43.6641C20.8323 44.533 21.0603 45.4866 21.0603 46.499C21.0603 47.0389 20.9928 47.5621 20.8747 48.0683H35.9859C35.8678 47.5621 35.8002 47.0388 35.8002 46.499C35.8002 45.4862 36.0197 44.533 36.4163 43.6641H20.4443Z" fill="#596B86"/>
</svg>
