<svg width="18" height="11" viewBox="0 0 18 11" fill="none" xmlns="http://www.w3.org/2000/svg">
<path d="M1.26096 0C1.09575 0 0.939048 0.0347416 0.794649 0.0919105L8.11048 6.31759C8.43063 6.59039 8.78772 6.59054 9.10876 6.31759L16.431 0.0855311C16.2888 0.0302655 16.1335 0.000218165 15.9713 0.000218165L1.26096 0ZM0.013193 1.07698C0.00469093 1.13649 0 1.19879 0 1.2608V9.66678C0 10.3653 0.5623 10.9278 1.26097 10.9278H15.9714C16.6699 10.9278 17.2324 10.3655 17.2324 9.66678V1.2608C17.2324 1.19879 17.2279 1.13649 17.2192 1.07698L9.92966 7.27639C9.17398 7.91903 8.04525 7.92005 7.28958 7.27639L0.013193 1.07698Z" fill="#7587A0"/>
</svg>
