<svg width="59" height="50" viewBox="0 0 59 50" fill="none" xmlns="http://www.w3.org/2000/svg">
<path d="M32.337 46.793C32.337 48.5643 30.9011 50.0001 29.1299 50.0001C27.3586 50.0001 25.9228 48.5643 25.9228 46.793C25.9228 45.0218 27.3586 43.5859 29.1299 43.5859C30.9011 43.5859 32.337 45.0218 32.337 46.793Z" fill="#596B86"/>
<path d="M42.6459 30.8773C38.8304 27.7623 34.0559 26.0605 29.1306 26.0605C24.2052 26.0605 19.4304 27.7623 15.6153 30.8773C15 31.3657 14.6065 32.0807 14.5239 32.8621C14.4408 33.6434 14.6752 34.4251 15.1747 35.0318C15.6737 35.6384 16.3957 36.0189 17.1783 36.088C17.9609 36.1567 18.7384 35.9084 19.3361 35.3987C22.1034 33.1464 25.5629 31.9168 29.1312 31.9168C32.699 31.9168 36.1585 33.1464 38.9262 35.3987C39.5235 35.9109 40.302 36.1612 41.0857 36.0929C41.8699 36.025 42.5932 35.6442 43.0934 35.0363C43.5933 34.4288 43.8277 33.6455 43.7434 32.8629C43.6596 32.0808 43.264 31.3649 42.6463 30.8773L42.6459 30.8773Z" fill="#596B86"/>
<path d="M55.2364 24.5701C55.8831 17.4801 49.8711 10.8254 42.7536 10.7417C38.8499 -2.73594 21.3413 -3.80933 15.9806 9.10298C7.59197 11.1 2.75438 16.9987 4.05188 23.9472C0.655772 25.5957 -0.38285 29.2188 0.119497 32.0144C0.361256 33.5897 1.16344 35.0251 2.37833 36.0568C3.5933 37.0885 5.13951 37.6476 6.73326 37.6313H14.1717C14.4572 37.6198 14.7068 37.4358 14.8017 37.1666C14.897 36.8974 14.8184 36.5976 14.6041 36.4094C13.6567 35.5651 13.1266 34.3485 13.1532 33.0796C13.1802 31.8111 13.761 30.6178 14.7433 29.8144C18.804 26.4981 23.8863 24.6863 29.1298 24.6863C34.3733 24.6863 39.4551 26.4981 43.5164 29.8144C45.5699 31.4093 45.6624 34.7706 43.6391 36.4237C43.4268 36.613 43.3524 36.9133 43.4514 37.1804C43.5508 37.4471 43.8032 37.6263 44.0879 37.6312H51.4368C55.2743 37.8104 58.2011 34.3149 58.251 30.5429C58.1704 27.8725 57.1048 25.7703 55.2362 24.5705L55.2364 24.5701ZM10.6305 25.1276C10.4509 25.4614 10.0344 25.5866 9.70065 25.407C8.28283 24.6429 6.6142 24.4923 5.08224 24.9902C5.4234 24.867 5.60994 24.5001 5.50848 24.152C5.45121 23.9315 5.40662 23.7082 5.37554 23.4828C7.06657 23.1375 8.82557 23.3903 10.351 24.1978C10.6848 24.3774 10.81 24.7938 10.6304 25.1276H10.6305ZM25.149 11.2552C24.9645 11.5866 24.546 11.7056 24.2143 11.5207C21.9014 10.2812 19.2342 9.86895 16.6547 10.3525C16.8686 10.2968 17.0424 10.1418 17.1222 9.93561C17.2736 9.56009 17.4339 9.18865 17.6123 8.83153C20.1297 8.60573 22.6577 9.1232 24.8835 10.3206C25.2148 10.505 25.3339 10.9235 25.149 11.2553L25.149 11.2552ZM32.9421 16.9544C32.8402 17.1123 32.6783 17.2215 32.4942 17.2567C32.3097 17.2918 32.1191 17.2501 31.9661 17.1409C31.8131 17.0321 31.7116 16.8652 31.685 16.6795C31.658 16.4938 31.7084 16.3052 31.8245 16.1575C34.0168 13.0244 37.5036 11.0458 41.3173 10.7693C41.4089 11.0442 41.4916 11.3191 41.5693 11.603V11.6034C41.6568 11.8991 41.9252 12.1045 42.2336 12.1118C38.5312 12.1106 35.0619 13.9187 32.942 16.9543L32.9421 16.9544ZM51.1217 24.6882C50.7421 24.6882 50.4344 24.3806 50.4344 24.001C50.4344 23.6214 50.7421 23.3138 51.1217 23.3138C52.0723 23.3113 53.0144 23.4966 53.8935 23.859C53.889 24.1936 53.8661 24.5324 53.8293 24.867C53.8003 25.1304 53.925 25.3869 54.15 25.5268C53.237 24.9742 52.1889 24.6841 51.1217 24.6882H51.1217Z" fill="#596B86"/>
<path d="M36.1217 37.1723C34.0592 35.7721 31.6236 35.0234 29.1303 35.0234C26.637 35.0234 24.2015 35.772 22.139 37.1723C21.2811 37.774 20.8095 38.7873 20.9016 39.8309C20.9936 40.8744 21.6354 41.7895 22.5853 42.2317C23.5351 42.6735 24.6486 42.5753 25.5065 41.974C26.5811 41.2626 27.8414 40.8834 29.1303 40.8834C30.4192 40.8834 31.6797 41.2626 32.7542 41.974C33.3911 42.4203 34.1789 42.5958 34.9452 42.4612C35.711 42.3266 36.392 41.8934 36.8387 41.2569C37.2854 40.62 37.4605 39.8322 37.3264 39.0659C37.1918 38.3001 36.7586 37.6191 36.1216 37.1724L36.1217 37.1723Z" fill="#596B86"/>
</svg>
