<svg width="13" height="14" viewBox="0 0 13 14" fill="none" xmlns="http://www.w3.org/2000/svg">
<path d="M3.86239 0.936035C1.82745 0.936035 0.171692 2.59428 0.171692 4.63158V9.90966C0.171692 11.9467 1.82843 13.6042 3.86387 13.6042H9.13714C11.1723 13.6042 12.8283 11.946 12.8283 9.90867V4.6301C12.8283 2.59331 11.1716 0.936035 9.13615 0.936035H3.86239ZM10.297 2.96294C10.5765 2.96294 10.8033 3.18996 10.8033 3.46967C10.8033 3.74938 10.5765 3.9764 10.297 3.9764C10.0175 3.9764 9.79073 3.74938 9.79073 3.46967C9.79073 3.18996 10.0175 2.96294 10.297 2.96294ZM6.50001 3.9764C8.31497 3.9764 9.79073 5.45351 9.79073 7.27013C9.79073 9.08674 8.31472 10.5639 6.50001 10.5639C4.68505 10.5639 3.20928 9.08649 3.20928 7.27013C3.20928 5.45376 4.68505 3.9764 6.50001 3.9764ZM6.50001 4.98985C5.24169 4.98985 4.22181 6.01065 4.22181 7.27013C4.22181 8.5296 5.24169 9.5504 6.50001 9.5504C7.75833 9.5504 8.7782 8.5296 8.7782 7.27013C8.7782 6.01065 7.75833 4.98985 6.50001 4.98985Z" fill="#D23939"/>
</svg>
