<svg width="72" height="72" viewBox="0 0 72 72" fill="none" xmlns="http://www.w3.org/2000/svg">
<g filter="url(#filter0_d_8_1102)">
<circle cx="36" cy="34" r="19" fill="#C9D6E9" fill-opacity="0.87"/>
<path d="M30.1697 37.7493C30.1697 37.4661 30.2823 37.1944 30.4825 36.9942C30.6828 36.7939 30.9545 36.6815 31.2376 36.6815C31.4254 36.6823 31.6096 36.7327 31.7716 36.8273C31.9346 36.9214 32.0698 37.0569 32.1635 37.2201C32.2573 37.3833 32.3064 37.5682 32.3055 37.7564C32.3055 37.8065 32.302 37.8564 32.2949 37.9059C32.2468 38.2348 32.0498 38.5229 31.7609 38.6873C31.5989 38.782 31.4146 38.8319 31.2269 38.8315C30.9432 38.8286 30.6721 38.7129 30.4736 38.5099C30.2753 38.3069 30.1659 38.0332 30.1698 37.7493L30.1697 37.7493ZM43.9423 30.5122H39.7951C39.6764 30.784 39.5233 31.0395 39.3394 31.2722C38.5699 32.258 37.3386 32.7664 36.0979 32.6106C34.857 32.4548 33.7896 31.6577 33.2878 30.5122H29.1462C28.8426 30.5127 28.5516 30.6333 28.3369 30.8479C28.1221 31.0623 28.001 31.353 28 31.6566V32.6907H45.0869V31.6566C45.0865 31.3533 44.9658 31.0624 44.7512 30.8479C44.5367 30.6335 44.2459 30.5127 43.9425 30.5122L43.9423 30.5122ZM32.8307 37.9878C32.8307 38.0394 32.8129 38.0928 32.8004 38.1444V38.1443C32.7995 38.1538 32.7995 38.1634 32.8004 38.1728C32.7833 38.2332 32.7631 38.2926 32.7399 38.3508C32.7341 38.3659 32.7276 38.3808 32.7203 38.3953C32.7008 38.4398 32.6794 38.4843 32.6545 38.5287L32.635 38.5661C32.6029 38.6195 32.5691 38.6694 32.5335 38.7174L32.5069 38.7495C32.4891 38.7726 32.473 38.7958 32.4535 38.8171H32.4533C32.499 38.8199 32.5447 38.8199 32.5903 38.8171C32.9745 38.8171 33.3293 38.6121 33.5213 38.2796C33.7135 37.9469 33.7135 37.5372 33.5213 37.2045C33.3293 36.872 32.9745 36.667 32.5903 36.667C32.5447 36.6643 32.499 36.6643 32.4533 36.667C32.4711 36.6865 32.4872 36.708 32.5032 36.7293L32.5353 36.7685H32.5351C32.5705 36.8158 32.6032 36.8653 32.6331 36.9162C32.6331 36.9304 32.649 36.9448 32.6561 36.959C32.6799 37.0017 32.7012 37.0445 32.7202 37.0871C32.7202 37.1031 32.7344 37.1174 32.7397 37.1334H32.7399C32.7636 37.1914 32.7838 37.2508 32.8004 37.3113C32.7995 37.322 32.7995 37.3328 32.8004 37.3434C32.8132 37.3944 32.8233 37.4461 32.8307 37.4983C32.8315 37.5154 32.8315 37.5327 32.8307 37.5498C32.8472 37.675 32.8472 37.8019 32.8307 37.9271C32.8318 37.9473 32.8318 37.9675 32.8307 37.9878L32.8307 37.9878ZM28 34.3587H45.0869V33.2232H28V34.3587ZM28 34.8927H45.0869V40.2216C45.0879 40.5257 44.9677 40.8177 44.753 41.0331C44.5383 41.2484 44.2466 41.3696 43.9424 41.3696H29.1462C28.842 41.3696 28.5501 41.2486 28.3352 41.0332C28.1201 40.8178 27.9995 40.5258 28 40.2216L28 34.8927ZM36.0381 37.0784C36.0381 37.2257 36.1576 37.3454 36.3051 37.3454H43.1859C43.3334 37.3454 43.4529 37.2257 43.4529 37.0784C43.4529 36.9309 43.3334 36.8114 43.1859 36.8114H36.3051C36.1576 36.8114 36.0381 36.9309 36.0381 37.0784ZM36.0381 38.4204V38.4203C36.0381 38.5678 36.1576 38.6873 36.3051 38.6873H43.1859C43.3334 38.6873 43.4529 38.5678 43.4529 38.4203C43.4529 38.2729 43.3334 38.1534 43.1859 38.1534H36.3051C36.1576 38.1534 36.0381 38.2729 36.0381 38.4203V38.4204ZM29.6306 37.7495V37.7494C29.6306 38.1742 29.7994 38.5816 30.0997 38.882C30.4002 39.1825 30.8076 39.3513 31.2324 39.3513C31.4682 39.3547 31.7017 39.3056 31.916 39.2071C32.1252 39.3061 32.3537 39.3577 32.5852 39.3584C33.16 39.3584 33.6913 39.0517 33.9786 38.5539C34.2661 38.0561 34.2661 37.4427 33.9786 36.9448C33.6912 36.447 33.16 36.1404 32.5852 36.1404C32.3531 36.1411 32.1241 36.1927 31.9142 36.2916C31.705 36.1926 31.4765 36.141 31.245 36.1404C30.8177 36.1385 30.4073 36.3073 30.1051 36.6095C29.803 36.9116 29.634 37.322 29.636 37.7494L29.6306 37.7495ZM39.5587 29.0884C39.5331 30.1479 38.9529 31.116 38.0309 31.6384C37.109 32.1608 35.9802 32.1608 35.0582 31.6384C34.1363 31.1161 33.5561 30.1479 33.5304 29.0884C33.5106 28.2762 33.8194 27.4905 34.3869 26.9091C34.9543 26.3278 35.7322 26 36.5447 26C37.357 26 38.1349 26.3278 38.7023 26.9091C39.2698 27.4905 39.5786 28.2762 39.5588 29.0884H39.5587ZM37.9426 28.2927H37.9427C37.8928 28.2423 37.8248 28.2139 37.754 28.2139C37.6831 28.2139 37.6152 28.2423 37.5654 28.2927L36.1876 29.6669L35.5238 29.003V29.0029C35.4192 28.8987 35.2498 28.8991 35.1456 29.0039C35.0414 29.1085 35.0418 29.2778 35.1465 29.382L35.9991 30.2328C36.0485 30.2838 36.1168 30.3121 36.1877 30.3111C36.2586 30.3115 36.3266 30.2832 36.3764 30.2328L37.9427 28.6665C38.0459 28.5619 38.0459 28.3938 37.9427 28.2892L37.9426 28.2927Z" fill="#4C6487"/>
</g>
<defs>
<filter id="filter0_d_8_1102" x="0" y="0" width="72" height="72" filterUnits="userSpaceOnUse" color-interpolation-filters="sRGB">
<feFlood flood-opacity="0" result="BackgroundImageFix"/>
<feColorMatrix in="SourceAlpha" type="matrix" values="0 0 0 0 0 0 0 0 0 0 0 0 0 0 0 0 0 0 127 0" result="hardAlpha"/>
<feOffset dy="2"/>
<feGaussianBlur stdDeviation="8.5"/>
<feComposite in2="hardAlpha" operator="out"/>
<feColorMatrix type="matrix" values="0 0 0 0 0.175 0 0 0 0 0.175 0 0 0 0 0.175 0 0 0 0.12 0"/>
<feBlend mode="normal" in2="BackgroundImageFix" result="effect1_dropShadow_8_1102"/>
<feBlend mode="normal" in="SourceGraphic" in2="effect1_dropShadow_8_1102" result="shape"/>
</filter>
</defs>
</svg>
