<svg width="16" height="15" viewBox="0 0 16 15" fill="none" xmlns="http://www.w3.org/2000/svg">
<path fill-rule="evenodd" clip-rule="evenodd" d="M15.7901 11.9305L11.7452 8.99463C11.4883 8.80728 11.2316 8.86967 11.039 9.05702L10.718 9.36951L9.69079 10.3688C9.36976 10.6812 8.85616 10.6812 8.47079 10.3688L4.68256 7.05832C4.48998 6.93336 4.42567 6.68362 4.42567 6.43369C4.42567 6.18377 4.4898 5.99641 4.68256 5.80906L5.77411 4.74714C5.96669 4.55978 5.96669 4.24747 5.83824 4.06013L3.07744 0.187355C3.01331 0.124963 2.88486 0 2.69228 0C2.56383 0 2.37125 1.80837e-07 2.2428 0.124963L0.637663 1.37423C-0.0043933 1.87389 -0.13285 2.68587 0.124064 3.43548C2.2428 8.93225 6.80145 13.0548 12.58 14.9287C13.222 15.1161 13.9925 14.9287 14.442 14.4291C14.763 14.0544 15.5336 13.1174 15.662 12.9925C15.7261 12.9301 15.7905 12.8051 15.8546 12.7425C15.983 12.6176 15.983 12.4926 15.983 12.3053C16.047 12.1179 15.9186 11.9929 15.7901 11.9304L15.7901 11.9305Z" fill="#7587A0"/>
</svg>
