<svg width="55" height="51" viewBox="0 0 55 51" fill="none" xmlns="http://www.w3.org/2000/svg">
<path fill-rule="evenodd" clip-rule="evenodd" d="M14.1532 11.062C16.8188 11.062 18.9924 8.57769 18.9924 5.53099C18.9924 2.48429 16.8186 0 14.1532 0C11.4877 0 9.31354 2.48515 9.31354 5.53099C9.31354 8.57725 11.4877 11.062 14.1532 11.062Z" fill="#596B86"/>
<path fill-rule="evenodd" clip-rule="evenodd" d="M8.72158 14.4229C9.71461 12.3388 12.1883 11.4649 14.247 12.4707C15.0436 12.8603 15.6614 13.4738 16.0619 14.2015C16.9565 15.555 18.4283 17.1945 20.242 18.5379C21.6935 19.612 23.3381 20.472 25.0271 20.7855C26.1503 20.9938 26.8936 22.0849 26.6874 23.2216C26.4816 24.3579 25.405 25.1118 24.2813 24.9035C21.9128 24.4631 19.6973 23.326 17.7945 21.9168C17.0326 21.3535 16.3177 20.7421 15.6602 20.1128C15.5486 20.7222 15.4366 21.419 15.3289 22.1564C14.9164 24.969 14.6566 28.0664 14.6566 29.4858C14.6566 31.4237 16.3418 34.2481 17.719 37.7833C18.9621 40.9746 19.8437 44.6513 19.9036 48.4075C19.9247 49.7555 18.8624 50.8652 17.5313 50.8859C16.2002 50.907 15.104 49.832 15.0833 48.484C15.033 45.3853 14.2805 42.2887 13.2198 39.5623C12.6497 38.0981 11.9977 36.7582 11.3267 35.5961C10.9692 37.9029 10.3362 40.38 9.38619 42.6653C8.12019 45.7124 6.27653 48.4671 3.74702 50.173C2.63529 50.918 1.13682 50.6099 0.401103 49.4838C-0.334166 48.3576 -0.0303393 46.8414 1.08144 46.0961C2.73709 44.9788 4.01358 43.0084 4.94325 40.7701C6.81645 36.2647 6.36016 34.7596 6.36016 29.4851C6.36016 27.7808 6.65765 24.1616 7.13008 20.9416C7.51293 18.3263 8.05085 15.8293 8.72147 14.4226L8.72158 14.4229Z" fill="#596B86"/>
<path fill-rule="evenodd" clip-rule="evenodd" d="M28.9398 24.6135H52.4478V20.4651C52.4478 20.0848 52.7592 19.7738 53.1396 19.7738C53.5199 19.7738 53.8313 20.0844 53.8313 20.4651V24.6135C54.2116 24.6135 54.5226 24.9249 54.5226 25.3052C54.5226 25.6855 54.212 25.9966 53.8313 25.9966V32.911C54.2116 32.911 54.5226 33.2216 54.5226 33.6023C54.5226 33.9826 54.212 34.2941 53.8313 34.2941V41.2081C54.2116 41.2081 54.5226 41.5195 54.5226 41.8994V41.8998C54.5226 42.2797 54.212 42.5912 53.8313 42.5912V46.7403C53.8313 47.1202 53.5199 47.4316 53.1396 47.4316C52.7592 47.4316 52.4478 47.1202 52.4478 46.7403V42.5912L28.9398 42.5907V46.7399C28.9398 47.1198 28.6284 47.4312 28.2485 47.4312C27.8682 47.4312 27.5568 47.1198 27.5568 46.7399V42.5907C27.1765 42.5907 26.8655 42.2793 26.8655 41.8994V41.899C26.8655 41.5191 27.1761 41.2077 27.5568 41.2077V34.2928C27.1765 34.2928 26.8655 33.9813 26.8655 33.601C26.8655 33.2207 27.1761 32.9097 27.5568 32.9097V25.9957C27.1765 25.9957 26.8655 25.6851 26.8655 25.3044C26.8655 24.9241 27.1761 24.6126 27.5568 24.6126V20.4643C27.5568 20.084 27.8682 19.7729 28.2485 19.7729C28.6284 19.7729 28.9398 20.0835 28.9398 20.4643V24.6135ZM52.4467 25.9957H28.9398V32.9101H52.4478L52.4467 25.9957ZM52.4467 34.2927H28.9398V41.2068H52.4478L52.4467 34.2927Z" fill="#596B86"/>
<path fill-rule="evenodd" clip-rule="evenodd" d="M28.2486 50.8864C29.0101 50.8864 29.6308 50.2661 29.6308 49.5042C29.6308 48.7428 29.0101 48.1221 28.2486 48.1221C27.4867 48.1221 26.8665 48.7428 26.8665 49.5042C26.8665 50.2661 27.4868 50.8864 28.2486 50.8864Z" fill="#596B86"/>
<path fill-rule="evenodd" clip-rule="evenodd" d="M53.1391 50.8864C53.901 50.8864 54.5221 50.2661 54.5221 49.5042C54.5221 48.7428 53.9014 48.1221 53.1391 48.1221C52.3776 48.1221 51.7569 48.7428 51.7569 49.5042C51.7565 50.2661 52.3772 50.8864 53.1391 50.8864Z" fill="#596B86"/>
<path fill-rule="evenodd" clip-rule="evenodd" d="M38.5124 17.0321C42.0574 17.3283 44.8417 20.299 44.8417 23.9217H31.0145C31.0145 20.2999 33.8 17.3289 37.345 17.0321C37.2765 16.9248 37.2372 16.7976 37.2372 16.662C37.2372 16.2795 37.547 15.9702 37.929 15.9702C38.3105 15.9702 38.6203 16.28 38.6203 16.662C38.6203 16.7976 38.5814 16.9248 38.513 17.0321H38.5124Z" fill="#596B86"/>
<path fill-rule="evenodd" clip-rule="evenodd" d="M48.9905 10.785C48.9905 12.6925 50.3727 13.1137 50.3727 14.9334V23.2305C50.3727 23.6104 50.0612 23.9222 49.6814 23.9222H46.2239C45.844 23.9222 45.5322 23.6108 45.5322 23.2305V20.1191H48.9896V16.6616H45.5322V14.9333C45.5322 13.1133 46.9152 12.6924 46.9152 10.7849L46.9156 8.71094H48.99V10.7849L48.9905 10.785Z" fill="#596B86"/>
<path fill-rule="evenodd" clip-rule="evenodd" d="M46.9167 5.40527H48.9911V8.1705H46.9167V5.40527Z" fill="#596B86"/>
</svg>
