<svg width="12" height="12" viewBox="0 0 12 12" fill="none" xmlns="http://www.w3.org/2000/svg">
<path d="M10.3125 0H0.9375C0.420536 0 0 0.420536 0 0.9375V11.0625C0 11.5795 0.420536 12 0.9375 12H10.3125C10.8295 12 11.25 11.5795 11.25 11.0625V0.9375C11.25 0.420536 10.8295 0 10.3125 0ZM10.875 11.0625C10.875 11.3726 10.6226 11.625 10.3125 11.625H0.9375C0.627364 11.625 0.375 11.3726 0.375 11.0625V0.9375C0.375 0.627364 0.627364 0.375 0.9375 0.375H10.3125C10.6226 0.375 10.875 0.627364 10.875 0.9375V11.0625Z" fill="black"/>
</svg>
