<svg width="50" height="50" viewBox="0 0 50 50" fill="none" xmlns="http://www.w3.org/2000/svg">
<path fill-rule="evenodd" clip-rule="evenodd" d="M6.4346 24.5275L16.2058 34.1789C16.5722 34.5412 17.0695 34.7446 17.5877 34.7446H48.0458C48.564 34.7446 49.0613 34.948 49.4277 35.3099C49.7941 35.6718 50 36.163 50 36.6749V42.4656C50 42.9383 49.8242 43.3946 49.5062 43.7479C49.1882 44.1012 48.7498 44.327 48.2744 44.3826L48.0458 44.3959H44.2604L46.0776 46.9263L46.0855 46.9358C46.7071 47.8238 46.4841 49.0242 45.5969 49.6304L45.5576 49.6576H45.5581C45.1349 49.9463 44.6141 50.0587 44.1077 49.9708C43.6017 49.8825 43.1511 49.6007 42.8536 49.1866L39.418 44.4015L39.4141 44.3976H10.908L10.904 44.4015L7.4684 49.1866C7.1709 49.6007 6.7203 49.8825 6.21434 49.9708C5.70789 50.0587 5.18663 49.9463 4.76397 49.6576L4.72471 49.6304V49.6309C4.29591 49.3375 4.00322 48.8868 3.91248 48.3792C3.82219 47.8716 3.94084 47.349 4.24226 46.9285L6.05947 44.3959H3.09886C2.40049 44.3959 1.75536 44.0279 1.40639 43.4308C1.05742 42.8336 1.05742 42.0977 1.40639 41.5005C1.75536 40.9033 2.40051 40.5354 3.09886 40.5354L7.00733 36.6748L0.571876 30.3183C0.205463 29.9564 0 29.4656 0 28.9538C0 28.4419 0.205452 27.9512 0.571876 27.5893L3.67162 24.5275C4.03803 24.1656 4.53489 23.9627 5.0531 23.9627C5.5713 23.9627 6.06816 24.1656 6.43457 24.5275L6.4346 24.5275ZM8.96159 38.6052L7.00736 40.5355H10.7401C10.6432 40.3252 10.5089 40.1335 10.3431 39.9698L8.96159 38.6052ZM30.4581 19.3026V32.8144H26.5497V19.3026H12.8701C12.0412 19.3026 11.2129 18.6076 10.9804 17.8106C11.3298 13.8092 13.072 10.0507 15.9108 7.17514C18.7493 4.29916 22.5085 2.4835 26.5497 2.03623V1.93024C26.5497 1.24043 26.9222 0.603207 27.5268 0.258517C28.1314 -0.0861725 28.8764 -0.0861725 29.481 0.258517C30.0856 0.603207 30.4581 1.24045 30.4581 1.93024V2.03623C34.4984 2.48346 38.2572 4.29872 41.0956 7.17382C43.9341 10.0489 45.6767 13.8061 46.0274 17.8066C45.7967 18.6076 44.9661 19.3025 44.1378 19.3025L30.4581 19.3026Z" fill="#596B86"/>
</svg>
