<svg width="19" height="21" viewBox="0 0 19 21" fill="none" xmlns="http://www.w3.org/2000/svg">
<path d="M17.7504 15.1722L17.2115 14.8439C18.3196 13.2633 18.9098 11.4129 18.9098 9.45505C18.9098 4.24155 14.6685 0 9.4548 0C8.50745 0 7.57824 0.138555 6.6951 0.411002C2.69055 1.62961 0 5.26382 0 9.45505C0 10.9724 0.349118 12.4214 1.03742 13.7597C2.6614 16.9362 5.88655 18.9094 9.45475 18.9094C10.2598 18.9094 11.0493 18.8004 11.8143 18.6025C11.8139 18.6082 11.8122 18.6138 11.8122 18.62V20.5641C11.8122 20.7314 11.9077 20.8836 12.0579 20.9564C12.1185 20.9852 12.1831 21 12.2481 21C12.3444 21 12.44 20.9681 12.5184 20.9058L14.0349 19.7071L15.5518 20.9058C15.683 21.0099 15.8626 21.0288 16.0121 20.9564C16.1629 20.8832 16.2578 20.7311 16.2578 20.5641V18.62C16.2578 18.4727 16.1833 18.3353 16.0599 18.2548L15.2334 17.7165L15.2981 16.542L17.4005 17.1554C17.5313 17.1947 17.6744 17.1681 17.7841 17.0857C17.8939 17.0038 17.9585 16.8744 17.9585 16.737V15.5449C17.9592 15.3925 17.88 15.2508 17.75 15.1718L17.7504 15.1722ZM18.0382 9.45554C18.0382 11.2511 17.4912 12.9467 16.4658 14.3901L15.5099 13.8077C15.4593 13.7592 15.428 13.6903 15.4258 13.6543C15.4459 13.3541 15.5823 10.7063 14.1451 10.3348C14.0737 10.3161 13.9986 10.3161 13.9272 10.3348C13.3657 10.48 13.0466 10.9725 12.8645 11.5339L11.8175 11.2371L11.5088 11.1447C10.4457 10.8304 9.44137 10.5336 9.17883 9.51429C9.08503 9.1498 9.1366 8.74539 9.31388 8.45799C9.44991 8.23828 9.64393 8.09973 9.89322 8.04563C9.96639 8.02948 10.0479 8.0213 10.1355 8.0213C12.3164 8.0213 13.3402 7.55698 14.0377 4.68053C14.1885 4.05934 14.5094 3.46077 14.9749 2.89194C16.8454 4.46725 18.0381 6.82352 18.0381 9.45553L18.0382 9.45554ZM6.63574 1.35505C7.18897 2.28138 7.44529 3.05336 7.33808 3.49839C7.29974 3.65583 7.21898 3.76305 7.07692 3.84576L6.94128 3.92341C5.40896 4.8036 2.84451 6.27559 4.31569 8.91273C4.82868 9.82989 4.78119 10.8687 4.18667 11.764C3.60734 12.6359 2.65261 13.1551 1.70512 13.1358C1.15417 11.9841 0.871654 10.7484 0.871654 9.45545C0.872043 5.76326 3.17556 2.5531 6.63565 1.35497L6.63574 1.35505ZM2.16881 13.9855C3.24205 13.8516 4.26547 13.2202 4.91251 12.2462C5.6837 11.0871 5.74463 9.68131 5.07676 8.48721C4.10296 6.74143 5.47745 5.76882 7.37543 4.67904L7.51282 4.60023C7.85941 4.39881 8.09177 4.08844 8.18458 3.70235C8.3424 3.04928 8.11004 2.17452 7.49723 1.09854C8.13242 0.94947 8.78843 0.871823 9.45495 0.871823C11.2439 0.871823 12.9057 1.42331 14.2823 2.36344C13.744 3.02742 13.37 3.73345 13.1899 4.4745C12.5662 7.04637 11.8464 7.1493 10.1347 7.1493C9.98424 7.1493 9.83965 7.16409 9.70654 7.19367C9.2249 7.29837 8.83218 7.57723 8.57143 8.00048C8.26979 8.48952 8.18086 9.13639 8.33382 9.73147C8.71913 11.2297 10.1284 11.6464 11.2615 11.9807L12.683 12.3878C12.6102 12.9854 12.6373 13.5068 12.6455 13.6154C12.6437 13.6868 12.6124 13.7588 12.5618 13.8076L10.3211 15.173C10.1911 15.2518 10.1123 15.3931 10.1123 15.5452V16.7374C10.1123 16.8742 10.1769 17.0038 10.2867 17.0861C10.396 17.1684 10.5387 17.1951 10.6702 17.1558L12.7721 16.5424L12.8174 17.3615L12.5991 17.4417C11.5983 17.8375 10.5402 18.0385 9.45531 18.0385C6.45683 18.0381 3.72818 16.5011 2.16886 13.9855L2.16881 13.9855ZM17.0879 16.1563L15.0166 15.5517C14.8889 15.5133 14.7512 15.5377 14.6426 15.6145C14.534 15.6916 14.4668 15.8138 14.4594 15.9467L14.3505 17.921C14.3413 18.0761 14.4166 18.2248 14.5474 18.3102L15.3873 18.8572V19.6654L14.3063 18.8111C14.2269 18.7483 14.1315 18.7169 14.036 18.7169C13.9404 18.7169 13.8451 18.7483 13.7657 18.8111L12.6851 19.665L12.6853 18.8568L13.5248 18.3098C13.6556 18.2248 13.7311 18.0761 13.7217 17.9206L13.6128 15.9464C13.6054 15.8135 13.5382 15.6914 13.4296 15.6142C13.321 15.5371 13.1829 15.5136 13.0556 15.5513L10.9847 16.156V15.7893L13.0469 14.5326C13.0634 14.523 13.0792 14.5112 13.0944 14.4995C13.3516 14.2907 13.5098 13.9676 13.5169 13.5957C13.462 12.7667 13.5945 11.5135 14.0361 11.227C14.478 11.5135 14.6105 12.7688 14.5549 13.6337C14.5619 13.9672 14.7201 14.2907 14.9778 14.4995C14.9929 14.5112 15.0087 14.523 15.0252 14.533L17.088 15.7893L17.0879 16.1563Z" fill="#DA8907"/>
</svg>
