<svg width="17" height="15" viewBox="0 0 17 15" fill="none" xmlns="http://www.w3.org/2000/svg">
<path d="M16.5571 2.30978C15.9634 2.58609 15.3251 2.77029 14.6517 2.85734C15.3364 2.43041 15.863 1.74945 16.1102 0.944898C15.4696 1.33945 14.76 1.62912 14.0048 1.78183C13.4019 1.11038 12.5418 0.693848 11.5889 0.693848C9.75845 0.693848 8.27501 2.23878 8.27501 4.14349C8.27501 4.41296 8.30499 4.6756 8.36156 4.93051C5.60794 4.78523 3.16571 3.41025 1.5318 1.32341C1.24473 1.83323 1.08324 2.43041 1.08324 3.06056C1.08324 4.25817 1.667 5.31229 2.55706 5.93353C2.01374 5.916 1.50239 5.75735 1.05467 5.50273C1.05467 5.51313 1.05467 5.52858 1.05467 5.54314C1.05467 7.21671 2.1973 8.61012 3.71185 8.92742C3.43496 9.00704 3.14251 9.05131 2.84102 9.05131C2.62692 9.05131 2.41847 9.02576 2.21653 8.98773C2.63823 10.3553 3.86175 11.355 5.31125 11.3844C4.1771 12.3081 2.74882 12.8613 1.19552 12.8613C0.927115 12.8613 0.664933 12.8453 0.405579 12.8123C1.87261 13.7883 3.61512 14.3605 5.48547 14.3605C11.5802 14.3605 14.9141 9.10301 14.9141 4.5422C14.9141 4.39276 14.9096 4.24391 14.9028 4.09685C15.5536 3.61436 16.1142 3.0053 16.5571 2.30978Z" fill="#00B2FF"/>
</svg>
